<svg width="1300" height="1300" version="1.1" viewBox="0 0 1300 1300" xmlns="http://www.w3.org/2000/svg">
 <g>
  <rect x="2.8422e-14" y="8.8818e-15" width="1300" height="1300" fill="#95bde4"/>
  <path d="m995.98 1242.3c-32.298-37.36 4.3588-90.898-25.077-134.7-6.8061-46.625-35.555-86.259-49.636-126.67-17.139-28.599-31.12-56.568-38.279-86.102 12.38-50.043-42.156-51.609-72.435-71.071-39.669-3.4491-82.675-55.409-117.53-26.108-16.307 19.444-26.479 46.983-41.148 61.845-38.532 39.579-66.316 93.927-113.92 125.97-102.53 25.531-210.68 3.9721-314.37 23.472-51.26-7.6008-94.983 61.839-117.42 66.61-13.496-17.29-77.064 55.092-78.436-7.2166 3.3583-62.984 73.617-78.097 99.153-126.96 42.676-47.962 65.261 47.326 112.22 4.1142 54.254-18.63 108.04-41.276 164.92-48.68 46.503 7.7096 115.12 14.211 109.33-52.24 12.955-50.205 59.855-87.525 50.372-143.01-6.7068-68.032 67.693-104.12 77.764-158.06 3.8014-42.62 25.16-95.758-37.176-100.82-44.218-14.555-97.658-65.746-31.314-92.729 35.985-36.374 102.84-30.653 112.74-88.794 33.777-3.5213 83.455-31.094 38.774-62.161-33.177-45.359-33.333-130.46 29.658-149.98 44.067-17.365 127.68-13.452 134.29 45.059-24.38 34.018 5.9739 76.691-1.3728 107.65-11.146 30.608-20.109 65.571-60.568 67.906-32.98 52.264 27.108 36.881 52.104 25.836 60.491 57.655-42.403 94.247-42.38 151.1-11.578 55.739-17.866 113.07-39.989 166.35-17.65 58.617 53.52 86.922 93.434 112.22 23.338 36.458 68.647 55.324 79.043 101.05 20.391 47.811 37.6 99.141 36.092 152.26 11.598 56.459 16.342 120.62 52.51 166.95 36.154 9.9357 70.033 37.102 112.55 28.257 46.636 38.51-47.253 67.54-77.266 62.807-30.354-13.022-67.45 18.144-96.64 5.8457z" fill="#332a21"/>
 </g>
</svg>
